<svg width="20" height="20" viewBox="0 0 20 20" fill="none" xmlns="http://www.w3.org/2000/svg">
<path d="M14.0662 12.4755L14.2206 12.7876C14.0912 12.8813 13.9704 12.986 13.8596 13.1004L13.5679 12.9065C13.5489 12.894 13.5275 12.8852 13.5051 12.8808C13.4826 12.8764 13.4595 12.8764 13.437 12.8809C13.4146 12.8853 13.3932 12.894 13.3742 12.9066C13.3552 12.9192 13.3389 12.9353 13.3263 12.9541L12.9892 13.4497C12.9633 13.4876 12.9536 13.5341 12.9622 13.579C12.9709 13.6239 12.9973 13.6637 13.0356 13.6896L13.3302 13.8865C13.2654 14.0317 13.2134 14.182 13.1747 14.3358L12.8186 14.3119C12.7721 14.3092 12.7263 14.3246 12.6914 14.3549C12.6564 14.3852 12.6351 14.4278 12.632 14.4735L12.5877 15.0731C12.5858 15.0958 12.5885 15.1185 12.5956 15.1401C12.6027 15.1617 12.6141 15.1818 12.6291 15.199C12.6441 15.2163 12.6624 15.2305 12.683 15.2408C12.7036 15.2511 12.7261 15.2573 12.7491 15.2591L13.1066 15.2836C13.1233 15.442 13.1539 15.5987 13.198 15.7519L12.8737 15.91C12.8316 15.9309 12.7996 15.9671 12.7844 16.0109C12.7692 16.0547 12.772 16.1026 12.7923 16.1444L13.0563 16.6899C13.0661 16.7106 13.08 16.7291 13.0971 16.7444C13.1143 16.7597 13.1344 16.7715 13.1563 16.7791C13.1781 16.7867 13.2013 16.7898 13.2245 16.7885C13.2476 16.7871 13.2703 16.7812 13.2911 16.7712L13.6163 16.6126C13.71 16.7428 13.8151 16.8647 13.9304 16.9769L13.7284 17.2767C13.7022 17.3156 13.6925 17.3631 13.7013 17.4089C13.7102 17.4548 13.7369 17.4955 13.7758 17.5223L14.2814 17.8656C14.3006 17.8786 14.3222 17.8878 14.345 17.8925C14.3678 17.8972 14.3914 17.8973 14.4143 17.8929C14.4372 17.8885 14.4589 17.8796 14.4783 17.8668C14.4976 17.854 14.5141 17.8375 14.5268 17.8183L14.7286 17.5178C14.8762 17.584 15.0293 17.6374 15.1863 17.6773L15.1623 18.0391C15.1558 18.1371 15.2298 18.2224 15.3275 18.2295L15.9396 18.2742C15.9631 18.2757 15.9866 18.2726 16.0089 18.2652C16.0311 18.2577 16.0516 18.246 16.0692 18.2306C16.0867 18.2153 16.101 18.1967 16.1112 18.1759C16.1214 18.155 16.1272 18.1324 16.1284 18.1094L16.1513 17.7506C16.3133 17.7341 16.4734 17.7033 16.6298 17.6587L16.7898 17.9822C16.7999 18.0031 16.8141 18.0219 16.8315 18.0374C16.849 18.0529 16.8695 18.0648 16.8917 18.0725C16.9139 18.0802 16.9374 18.0835 16.9609 18.0822C16.9845 18.0809 17.0075 18.075 17.0287 18.0649L17.5795 17.7964C17.6675 17.7535 17.7032 17.6469 17.6591 17.5585L17.4994 17.238C17.6318 17.1427 17.7552 17.0359 17.8682 16.9189L18.1645 17.117C18.1838 17.1301 18.2056 17.1392 18.2285 17.1439C18.2515 17.1486 18.2752 17.1488 18.2982 17.1443C18.3212 17.1399 18.3431 17.131 18.3625 17.1181C18.382 17.1052 18.3986 17.0886 18.4114 17.0693L18.7493 16.5616C18.7752 16.5222 18.7843 16.4744 18.7747 16.4284C18.7651 16.3825 18.7376 16.3421 18.698 16.3158L18.403 16.1197C18.4683 15.9706 18.5203 15.8161 18.5582 15.658L18.9093 15.6822C18.9326 15.6837 18.956 15.6807 18.9781 15.6733C19.0003 15.6659 19.0206 15.6542 19.0381 15.639C19.0556 15.6237 19.0698 15.6052 19.0799 15.5845C19.09 15.5638 19.0958 15.5413 19.0969 15.5184L19.131 14.912C19.1337 14.8655 19.1176 14.8198 19.0863 14.7848C19.055 14.7498 19.0109 14.7283 18.9637 14.7249L18.616 14.7015C18.5968 14.54 18.5631 14.3805 18.5153 14.2247L18.8264 14.0731C18.8472 14.0629 18.8657 14.0486 18.881 14.0313C18.8962 14.014 18.9077 13.9939 18.915 13.9722C18.9223 13.9504 18.9251 13.9275 18.9234 13.9047C18.9216 13.8819 18.9153 13.8597 18.9047 13.8393L18.6298 13.2991C18.609 13.2578 18.5723 13.2263 18.5279 13.2114C18.4835 13.1966 18.4348 13.1996 18.3927 13.2199L18.0826 13.3711C17.9855 13.2409 17.877 13.1193 17.7582 13.0079L17.9483 12.7249C17.974 12.6865 17.9831 12.6396 17.9737 12.5946C17.9643 12.5496 17.9372 12.5101 17.8982 12.4847L17.3918 12.1535C17.3727 12.1409 17.3512 12.1321 17.3286 12.1277C17.306 12.1233 17.2827 12.1234 17.2601 12.1278C17.2376 12.1323 17.2161 12.141 17.197 12.1537C17.1778 12.1663 17.1615 12.1825 17.1487 12.2013L16.9572 12.4855C16.8087 12.4215 16.6547 12.3704 16.4971 12.3329L16.5189 11.9918C16.5218 11.9463 16.5062 11.9015 16.4756 11.8672C16.4449 11.8329 16.4017 11.812 16.3553 11.809L15.7534 11.7711C15.7071 11.7683 15.6616 11.7836 15.6268 11.8137C15.592 11.8438 15.5708 11.8862 15.5679 11.9317L15.5452 12.2738C15.3853 12.2917 15.2274 12.3236 15.0733 12.3689L14.9192 12.0597C14.9091 12.0395 14.8951 12.0215 14.878 12.0066C14.8608 11.9917 14.8408 11.9804 14.8191 11.9731C14.7975 11.9659 14.7746 11.9629 14.7517 11.9644C14.7289 11.9659 14.7066 11.9719 14.6861 11.9819L14.1462 12.245C14.1047 12.2654 14.073 12.301 14.058 12.3441C14.043 12.3872 14.046 12.4345 14.0662 12.4755ZM14.2584 15.7666C13.8293 14.8903 14.1933 13.8378 15.069 13.4109C15.9448 12.984 17.0084 13.3407 17.4471 14.2123C17.8885 15.0892 17.5305 16.1538 16.6451 16.5854C15.7597 17.0169 14.69 16.6482 14.2584 15.7666Z" fill="#D8DEE8"/>
<path d="M9.96442 3.13028C6.99436 3.11171 4.64418 6.41802 4.64418 10.5147C4.64418 14.6114 6.99436 18.1075 9.96442 18.3287C13.0159 18.556 15.5516 15.2573 15.5516 10.9551C15.5516 6.65286 13.0159 3.14936 9.96442 3.13028ZM10.2615 17.9445H10.2613C10.173 17.9445 10.0834 17.9412 9.99485 17.9346C8.68811 17.8372 7.45597 17.028 6.52541 15.6559C5.57176 14.2497 5.04656 12.4239 5.04656 10.5147C5.04656 8.6148 5.56693 6.84007 6.5118 5.51744C7.42946 4.23288 8.64679 3.52545 9.93951 3.52545L9.96185 3.52552C10.6343 3.52972 11.2916 3.72087 11.9156 4.09365C12.5327 4.46227 13.0904 4.99065 13.5733 5.6641C14.0645 6.34911 14.4511 7.14639 14.7223 8.0338C15.0056 8.96055 15.1492 9.94342 15.1492 10.9551C15.1492 12.8768 14.6247 14.6612 13.6723 15.9795C12.7569 17.2467 11.5456 17.9445 10.2615 17.9445Z" fill="url(#paint0_linear_1502_588)"/>
<path d="M4.83101 10.5147C4.83101 6.70605 6.86234 3.58054 9.53458 3.17479C9.34683 3.14657 6.1072 3.13149 5.91486 3.13028C2.94481 3.11171 0.59462 6.41802 0.59462 10.5147C0.59462 14.6114 2.94481 18.1074 5.91486 18.3287C6.21658 18.3512 9.56259 18.3391 9.85228 18.295C7.02502 17.8703 4.83101 14.4729 4.83101 10.5147Z" fill="url(#paint1_linear_1502_588)"/>
<path d="M5.81983 3.12111C6.5441 3.3136 7.99549 3.80668 9.24099 5.09908C11.0332 6.95876 10.9723 9.12703 11.032 10.0839C11.0806 10.8624 11.5399 14.9483 8.61729 17.0552C7.47724 17.8771 6.28087 18.1185 5.57919 18.2016C6.14809 18.2439 9.39553 18.2863 9.96442 18.3287C10.6369 18.2297 11.6033 17.9908 12.5432 17.3517C15.7792 15.1512 15.3652 10.4754 15.2996 9.84202C15.1998 8.87969 14.936 6.33414 12.8048 4.54573C11.7596 3.66867 10.6523 3.29851 9.96442 3.13027C9.47574 3.12722 6.30851 3.12416 5.81983 3.12111Z" fill="url(#paint2_linear_1502_588)"/>
<path d="M5.7298 3.11552C2.78957 3.09722 0.462769 6.39091 0.462769 10.4718C0.462769 14.5526 2.78957 18.0344 5.7298 18.2538C8.75027 18.4792 11.26 15.193 11.26 10.9082C11.26 6.62345 8.75027 3.13433 5.7298 3.11552ZM6.02288 17.8695H6.0224C5.93544 17.8695 5.84725 17.8662 5.76029 17.8597C4.46834 17.7633 3.24982 16.9582 2.3292 15.5926C1.3851 14.1922 0.865158 12.3736 0.865158 10.4718C0.865158 8.57913 1.38035 6.81118 2.31585 5.49358C3.22372 4.2149 4.42748 3.51069 5.70541 3.51069L5.72725 3.51076C6.39171 3.5149 7.04135 3.70496 7.65815 4.07566C8.26848 4.44248 8.82019 4.9684 9.29795 5.63879C9.78405 6.32089 10.1666 7.11486 10.4351 7.99863C10.7155 8.92165 10.8576 9.90058 10.8576 10.9082C10.8576 12.8227 10.3384 14.6003 9.39554 15.9136C8.49004 17.1748 7.29216 17.8695 6.02288 17.8695Z" fill="url(#paint3_linear_1502_588)"/>
<path d="M14.9865 5.5041L9.87729 5.45957C9.37754 5.45521 8.9675 5.85774 8.9675 6.35868V14.4932C8.9675 14.9941 9.16701 15.2643 9.87729 15.3963L10.4381 15.4332C10.8665 15.3798 15.7583 14.3382 15.7583 13.8821V6.33664C15.7583 5.88056 15.4149 5.50783 14.9865 5.5041Z" fill="url(#paint4_linear_1502_588)"/>
<path d="M15.6485 5.50404L10.5534 5.45957C10.0551 5.45522 9.64616 5.85718 9.64616 6.35742V14.6334C9.64616 15.1336 10.0551 15.4882 10.5534 15.4261L15.6485 14.7914C16.0758 14.7381 16.4183 14.3262 16.4183 13.8707V6.33546C16.4183 5.87999 16.0758 5.50777 15.6485 5.50404Z" fill="url(#paint5_linear_1502_588)"/>
<path d="M15.6485 5.92099L10.5534 5.90701C10.3055 5.90633 10.1025 6.10771 10.1025 6.35593V14.582C10.1025 14.8302 10.3055 15.0081 10.5534 14.9787L15.6485 14.3744C15.8625 14.349 16.0356 14.1425 16.0356 13.9138V6.33669C16.0356 6.10805 15.8625 5.92157 15.6485 5.92099Z" fill="#D8DEE8"/>
<g style="mix-blend-mode:soft-light" opacity="0.5">
<path d="M12.4804 10.7857C11.8669 9.02464 12.9133 7.94113 12.3539 6.21816C12.2694 5.95853 12.1568 5.70851 12.0182 5.47236L10.5534 5.45957C10.0551 5.45522 9.64616 5.85718 9.64616 6.35742V14.6334C9.64616 15.1336 10.0551 15.4882 10.5534 15.4261L15.4029 14.822C15.2373 14.2742 15.0156 13.8423 14.7831 13.4967C13.9236 12.2191 12.9779 12.2139 12.4804 10.7857Z" fill="white"/>
</g>
<g style="mix-blend-mode:soft-light">
<path d="M15.5516 6.28621V10.4444L10.4655 10.6934V6.28621H15.5516Z" fill="white"/>
</g>
<g style="mix-blend-mode:soft-light">
<path d="M11.6941 14.5988C11.7608 14.5988 15.6479 14.1944 15.6479 14.1944V11.217L11.6941 11.5443V14.5988Z" fill="white"/>
</g>
<path d="M19.5384 3.20655V6.44343C19.5382 6.59659 19.5073 6.74822 19.4473 6.88962C19.3874 7.03102 19.2996 7.15941 19.1891 7.26743C19.0785 7.37544 18.9473 7.46096 18.8031 7.51909C18.6588 7.57721 18.5043 7.60679 18.3483 7.60614H14.3404C13.6834 7.60614 13.1629 7.0888 13.1629 6.44343V3.20655C13.1629 2.81638 13.3515 2.46767 13.6505 2.25547C13.8462 2.11649 14.0806 2.03149 14.3404 2.03149H18.3483C19.0054 2.03149 19.5384 2.56118 19.5384 3.20655Z" fill="url(#paint6_linear_1502_588)"/>
<path d="M16.7776 6.89334L14.7595 8.87846C14.7371 8.89969 14.7089 8.91409 14.6783 8.9199C14.6477 8.92571 14.6161 8.92269 14.5872 8.91121C14.5297 8.88796 14.488 8.83272 14.488 8.77149V6.71213L16.7776 6.89334Z" fill="url(#paint7_linear_1502_588)"/>
<path d="M17.4948 4.82829L16.8035 2.89102H15.8808L15.3937 4.26489L14.6244 6.42736H15.4375L15.6957 5.54328H16.9933L17.2513 6.42736H18.0646L17.4948 4.82829ZM15.8856 4.95389C15.9553 4.73286 16.0174 4.53175 16.0721 4.35554C16.2156 3.89213 16.3068 3.58628 16.3457 3.43799C16.3586 3.49523 16.3802 3.57317 16.4103 3.67183C16.4335 3.74781 16.5177 4.01779 16.6635 4.47944C16.7078 4.61942 16.7577 4.78198 16.8131 4.95389H15.8856Z" fill="white"/>
<path style="mix-blend-mode:multiply" opacity="0.3" d="M19.1825 7.27361C18.9599 7.48807 18.6601 7.60757 18.3483 7.60613H16.0517L14.7623 8.87555C14.7398 8.89699 14.7114 8.91162 14.6806 8.91768C14.6498 8.92374 14.6179 8.92099 14.5887 8.90974C14.5312 8.88649 14.488 8.83271 14.488 8.77148V7.60613H14.3404C13.6834 7.60613 13.1629 7.08879 13.1629 6.44342V3.20654C13.1629 2.81637 13.3515 2.47093 13.6505 2.25873C13.619 2.94259 13.7691 4.06337 15.0743 4.2161C15.1853 4.2291 15.2911 4.2421 15.3952 4.25534C15.6392 4.28609 15.8642 4.31833 16.0729 4.35408C16.2879 4.39081 16.4845 4.43131 16.6639 4.4778C16.9998 4.56478 17.2749 4.67327 17.495 4.81873C17.8291 5.03969 18.0367 5.34468 18.1385 5.79209C18.3174 6.57844 18.6094 7.0574 19.1825 7.27361Z" fill="url(#paint8_linear_1502_588)"/>
<path d="M14.163 7.75567V10.9925C14.163 11.2935 14.0501 11.5744 13.8597 11.7816C13.6421 12.0185 13.3297 12.1739 12.979 12.1739H8.97113C8.3141 12.1739 7.76257 11.6379 7.76257 10.9925V7.75567C7.76257 7.34425 7.98858 6.98838 8.31584 6.78016C8.50185 6.66194 8.73295 6.59926 8.97113 6.59926H12.979C13.6361 6.59926 14.163 7.1103 14.163 7.75567Z" fill="url(#paint9_linear_1502_588)"/>
<path d="M12.8129 11.2503V13.3096C12.8129 13.3708 12.7791 13.4258 12.7215 13.4493C12.6937 13.4608 12.6629 13.4638 12.6333 13.458C12.6037 13.4522 12.5765 13.4377 12.5553 13.4166L10.5317 11.4315L12.8129 11.2503Z" fill="url(#paint10_linear_1502_588)"/>
<path d="M12.7129 8.07274H9.23767V8.61301H12.7129V8.07274Z" fill="white"/>
<path d="M12.4964 11.2158C11.2678 10.9362 10.6034 10.1759 10.2624 9.58726C9.89586 8.95462 9.81772 8.38716 9.81458 8.3633L10.3583 8.29407L10.0864 8.32868L10.3582 8.29341C10.3589 8.29834 10.4299 8.79526 10.7489 9.33793C11.1663 10.0483 11.7959 10.5036 12.6202 10.6912L12.4964 11.2158Z" fill="white"/>
<path d="M9.46294 11.2158L9.33919 10.6912C10.1634 10.5036 10.793 10.0483 11.2105 9.33793C11.5294 8.79526 11.6004 8.29834 11.6011 8.29341L12.1448 8.3633C12.1416 8.38716 12.0635 8.95462 11.697 9.58726C11.356 10.1759 10.6916 10.9362 9.46294 11.2158Z" fill="white"/>
<path d="M11.2378 7.53247H10.7128V8.31832H11.2378V7.53247Z" fill="white"/>
<path style="mix-blend-mode:multiply" opacity="0.3" d="M13.8625 11.7816C13.645 12.0185 13.3297 12.1739 12.979 12.1739H12.8129V13.3096C12.8129 13.3708 12.7791 13.4258 12.7215 13.4493C12.6638 13.4728 12.5994 13.4662 12.5553 13.423L11.2789 12.1739H8.97113C8.3141 12.1739 7.76257 11.6379 7.76257 10.9925V7.75567C7.76257 7.34425 7.98858 6.98232 8.31584 6.77411C8.29192 7.35375 8.4081 8.23358 9.22723 8.58251C9.25141 8.59276 9.27821 8.6025 9.30365 8.61176C9.43495 8.66024 9.58449 8.69574 9.75167 8.71524C9.80079 8.72099 9.84973 8.72674 9.89732 8.73248C10.1111 8.75822 10.3121 8.78448 10.5004 8.81272C10.8351 8.86295 11.1299 8.91895 11.3879 8.98819C11.5808 9.03992 11.7529 9.09941 11.9056 9.1694C12.4016 9.3961 12.693 9.738 12.8199 10.2959C12.9986 11.0815 13.2902 11.5651 13.8625 11.7816Z" fill="url(#paint11_linear_1502_588)"/>
<path d="M8.27568 10.6174L11.3437 8.14481L11.3597 8.15247L8.31587 10.6852L8.27568 10.6174Z" fill="url(#paint12_linear_1502_588)"/>
<path d="M8.08827 10.7818L8.20839 10.653L8.27091 10.5109C8.28171 10.4863 8.29891 10.465 8.32078 10.4491L8.35667 10.4229C8.37726 10.4079 8.40221 10.3998 8.42785 10.3998H8.54562C8.54562 10.3998 8.5251 10.4376 8.49168 10.4433C8.45825 10.4491 8.38837 10.5266 8.38837 10.5266L8.37888 10.6174L8.51251 10.5216L8.65494 10.3608V10.4501C8.65494 10.4806 8.64376 10.5101 8.62343 10.5332L8.50788 10.6645C8.47935 10.697 8.4401 10.7185 8.39702 10.7253L8.36852 10.7298C8.33919 10.7344 8.31113 10.7449 8.28605 10.7605C8.26096 10.7761 8.23938 10.7966 8.22261 10.8207L8.14136 10.9375L8.08827 10.7818Z" fill="url(#paint13_linear_1502_588)"/>
<path d="M1.60439 15.0632C1.60439 15.0632 1.57109 15.217 1.5421 15.3465C1.51312 15.4761 1.39716 15.5754 1.34643 15.6788C1.2957 15.7822 1.27291 15.6612 1.25895 15.5864C1.24498 15.5117 1.25895 15.3573 1.32173 15.3045C1.38452 15.2517 1.43224 15.2056 1.42919 15.1949C1.42615 15.1842 1.46951 15.0063 1.46951 15.0063L1.60439 15.0632Z" fill="url(#paint14_linear_1502_588)"/>
<path d="M2.99613 19.6867C2.98822 19.6547 2.99353 19.6118 3.02197 19.5831C3.0603 19.5443 3.12448 19.5476 3.16477 19.5655C3.18825 19.5759 3.20651 19.5926 3.27102 19.7248C3.3392 19.8644 3.3389 19.8869 3.32793 19.8997C3.30563 19.9256 3.24307 19.9065 3.22959 19.9023C3.18477 19.8887 3.17382 19.8678 3.08148 19.7829C3.01888 19.7253 3.00335 19.7159 2.99613 19.6867Z" fill="url(#paint15_linear_1502_588)"/>
<path d="M3.03973 19.4684L3.05536 19.6303C3.09289 19.6495 3.11619 19.6479 3.12846 19.6303L3.15996 19.4684H3.03973Z" fill="url(#paint16_linear_1502_588)"/>
<path d="M4.61545 19.6665C4.59339 19.6416 4.578 19.6012 4.58974 19.5628C4.60558 19.5111 4.66407 19.4849 4.70824 19.4826C4.73397 19.4812 4.75801 19.4878 4.87726 19.5758C5.00329 19.6689 5.0136 19.689 5.00984 19.7053C5.0022 19.7384 4.93772 19.7497 4.92381 19.7522C4.87762 19.7603 4.8581 19.7468 4.73631 19.7132C4.65374 19.6904 4.63557 19.6892 4.61545 19.6665Z" fill="url(#paint17_linear_1502_588)"/>
<path d="M4.62639 19.3962L4.64202 19.558C4.67954 19.5772 4.70285 19.5757 4.71512 19.558L4.74662 19.3962H4.62639Z" fill="url(#paint18_linear_1502_588)"/>
<path d="M2.99756 19.5001C3.05685 19.5036 3.11614 19.5071 3.17543 19.5106C3.30097 18.9092 3.43922 18.2939 3.59018 17.6649C3.7561 16.9758 3.92874 16.308 4.10812 15.6615C4.16474 15.9075 4.22079 16.1952 4.26493 16.5187C4.30846 16.8338 4.33581 17.1508 4.34689 17.4686C4.36306 17.9894 4.31684 18.0509 4.33869 18.3761C4.35587 18.6318 4.41224 19.0074 4.60095 19.4636C4.65746 19.4602 4.71398 19.4568 4.7705 19.4535C4.91724 18.7559 5.0041 18.0474 5.03017 17.3356C5.0615 16.4819 5.00556 15.6273 4.8632 14.7846C4.34962 14.8002 3.83604 14.8159 3.32247 14.8316C3.1957 15.1071 3.10485 15.3973 3.05209 15.6952C2.97769 16.1201 3.02332 16.3297 2.96733 17.0535C2.9384 17.4276 2.91728 17.4869 2.89631 17.7354C2.86155 18.1468 2.85552 18.741 2.99756 19.5001Z" fill="url(#paint19_linear_1502_588)"/>
<path style="mix-blend-mode:multiply" opacity="0.3" d="M3.33885 18.0643C3.38571 17.5752 3.20604 17.5853 3.28969 17.1627C3.36665 16.7739 3.52987 16.7092 3.65028 16.2128C3.74692 15.8144 3.67311 15.7271 3.74863 15.5527C3.84193 15.3373 4.11447 15.1022 4.89786 15.0023C4.88664 14.928 4.87511 14.8551 4.8632 14.7846C4.34962 14.8002 3.83604 14.8159 3.32247 14.8316C3.1957 15.1071 3.10485 15.3973 3.05209 15.6952C2.9777 16.1201 3.02332 16.3297 2.96733 17.0535C2.9384 17.4276 2.91729 17.4869 2.89631 17.7354C2.86155 18.1468 2.85552 18.741 2.99756 19.5001C3.05685 19.5036 3.11614 19.5071 3.17543 19.5106C3.17908 19.4932 3.18298 19.4754 3.18665 19.4579C3.15441 19.4071 3.12847 19.3528 3.10938 19.2959C2.97934 18.9035 3.2803 18.6756 3.33885 18.0643Z" fill="url(#paint20_linear_1502_588)"/>
<path d="M1.39655 15.0939C1.47303 15.1073 1.54952 15.1207 1.62602 15.1341C1.67326 14.9936 1.74182 14.7817 1.81569 14.5207C1.90015 14.2224 1.94352 14.0296 1.96202 13.9588C2.03564 13.6775 2.25092 13.2827 2.88541 12.8021C2.87911 13.1079 2.87423 13.3594 2.87094 13.5322C2.84455 14.9188 2.84607 15.1705 3.03358 15.3087C3.19662 15.4289 3.28667 15.3059 4.02729 15.3197C4.70273 15.3323 4.8449 15.4387 5.01642 15.3169C5.29477 15.1192 5.18665 14.6499 5.19101 14.0635C5.19461 13.5796 5.2757 12.8949 5.63356 12.0591C6.04048 12.0985 6.45127 12.0519 6.83828 11.9222C7.61578 11.66 8.0576 11.1362 8.22331 10.916C8.16867 10.8435 8.11404 10.7711 8.0594 10.6986C7.65747 10.8715 7.23514 10.9943 6.80221 11.0643C5.85653 11.2161 5.42176 11.0188 4.54358 11.0528C4.0378 11.0725 3.00479 11.1125 2.30623 11.6324C1.02158 12.5885 1.35046 14.8083 1.39655 15.0939Z" fill="url(#paint21_linear_1502_588)"/>
<path style="mix-blend-mode:multiply" opacity="0.3" d="M3.84698 14.9329C3.80788 14.7187 3.92531 14.6285 3.86337 14.3855C3.77596 14.0425 3.49565 14.0399 3.42901 13.7496C3.36547 13.4727 3.60078 13.3896 3.65848 12.9526C3.7009 12.6314 3.64099 12.167 3.42082 12.0913C3.14691 11.9971 2.74435 12.5455 2.69962 12.6065C2.56252 12.7945 2.46174 13.0058 2.4023 13.2296C2.52761 13.0962 2.68567 12.9534 2.88542 12.8021C2.87912 13.1079 2.87424 13.3594 2.87095 13.5322C2.84456 14.9188 2.84608 15.1705 3.03359 15.3087C3.19663 15.4289 3.28669 15.3059 4.0273 15.3197C4.04847 15.3201 4.06761 15.3209 4.08775 15.3214C3.92775 15.1776 3.86705 15.0429 3.84698 14.9329Z" fill="url(#paint22_linear_1502_588)"/>
<path d="M4.07362 10.656C4.07362 10.656 4.05076 10.8347 3.98314 10.9645C3.92204 11.0818 3.64651 11.1369 3.58971 11.1597C3.53291 11.1824 3.68332 11.274 3.83958 11.3019C3.99584 11.3299 4.44858 11.3302 4.53446 11.2779C4.62034 11.2256 4.47372 11.2185 4.36459 11.1691C4.25545 11.1197 4.20806 10.8986 4.23591 10.8021C4.26375 10.7056 4.07362 10.656 4.07362 10.656Z" fill="url(#paint23_linear_1502_588)"/>
<path d="M4.36433 10.5897C4.40141 10.5282 4.37776 10.4165 4.30514 10.3685C4.25125 10.3328 4.18947 10.3448 4.14446 10.3536C4.12363 10.3577 3.9773 10.3879 3.94379 10.4945C3.93314 10.5284 3.93755 10.5732 3.95314 10.6079C3.96117 10.6257 3.97614 10.6477 4.00904 10.6894C4.03824 10.7264 4.03634 10.7251 4.04527 10.7359C4.06668 10.7617 4.10766 10.8048 4.18113 10.8535C4.18461 10.8292 4.19023 10.8054 4.19794 10.7821C4.20792 10.7518 4.2218 10.723 4.23924 10.6962C4.28759 10.6254 4.33534 10.6379 4.36433 10.5897Z" fill="url(#paint24_linear_1502_588)"/>
<path d="M4.08803 10.8067C4.08803 10.8067 4.16703 10.9102 4.30199 10.8887C4.42284 10.8694 4.4144 10.5998 4.33115 10.5503C4.30338 10.5338 4.25071 10.5309 4.20966 10.5465C4.18539 10.5557 4.17796 10.5667 4.13803 10.581C4.10121 10.5942 4.09013 10.5911 4.07966 10.6016C4.06655 10.6147 4.05895 10.6446 4.09043 10.7206C4.06497 10.6997 4.03625 10.6935 4.01742 10.7046C4.01102 10.7088 4.00594 10.7147 4.00275 10.7216C3.98874 10.7538 4.02101 10.7902 4.08803 10.8067Z" fill="url(#paint25_linear_1502_588)"/>
<path d="M4.06061 10.6543C4.06061 10.6543 4.11211 10.7481 4.14077 10.7702C4.16944 10.7923 4.23403 10.8058 4.29673 10.7722C4.33158 10.7541 4.36428 10.7323 4.39423 10.7071C4.39423 10.7071 4.41989 10.837 4.40427 10.853C4.38866 10.8691 4.27305 10.9386 4.23983 10.9337C4.2066 10.9287 4.12548 10.8644 4.1067 10.8246C4.08792 10.7848 4.06531 10.6815 4.06531 10.6815L4.06061 10.6543Z" fill="url(#paint26_linear_1502_588)"/>
<path d="M13.0202 0.412577L12.5798 1.114L12.5129 1.22043C12.5129 1.22043 12.4845 1.21114 12.4313 1.19397C12.4048 1.18461 12.3715 1.17537 12.3324 1.16408C12.2934 1.15197 12.248 1.14104 12.197 1.12816C11.9127 1.05869 11.6206 1.02457 11.3277 1.0266C11.13 1.02822 10.9328 1.04547 10.738 1.07818C10.6342 1.09744 10.5274 1.11811 10.4203 1.14777C10.4068 1.15121 10.3932 1.15475 10.3797 1.15818C10.3662 1.16209 10.3528 1.16623 10.3393 1.17013C10.3124 1.17817 10.2853 1.18618 10.258 1.19415C10.2043 1.21272 10.1491 1.22932 10.0952 1.25037C9.87018 1.33332 9.65421 1.43818 9.45048 1.56338C9.34602 1.62772 9.24433 1.6987 9.14472 1.77364L9.07147 1.83203C9.05942 1.8418 9.04654 1.85148 9.03508 1.86111L9.00063 1.89058L8.96606 1.91994C8.95463 1.9298 8.9434 1.93895 8.93072 1.9511L8.85676 2.01958L8.84744 2.02818L8.83623 2.02639L8.8284 2.02151L8.82736 2.02261L8.8182 2.04394L8.78789 2.08016C8.76558 2.10223 8.7444 2.12557 8.72334 2.14878L8.65946 2.21804C8.63878 2.24183 8.61849 2.26576 8.5978 2.28931C8.51583 2.38387 8.43903 2.48264 8.36772 2.58521L8.34092 2.62351L8.31553 2.66241C8.29865 2.68831 8.28144 2.71413 8.26505 2.74025C8.23326 2.79317 8.20062 2.84531 8.17177 2.8993C8.14118 2.95218 8.11452 3.00681 8.08674 3.06066C8.07352 3.08785 8.06104 3.11526 8.04831 3.14243C8.04193 3.15602 8.03556 3.16961 8.0292 3.1832C8.02332 3.197 8.01756 3.21069 8.0118 3.22438C7.9634 3.33358 7.92408 3.44424 7.88797 3.55372C7.87108 3.60884 7.85379 3.66314 7.83989 3.71779C7.8244 3.77215 7.81255 3.82662 7.7998 3.88028C7.75526 4.08334 7.72769 4.28964 7.71739 4.49711C7.70854 4.67383 7.71253 4.85096 7.72935 5.02712C7.74267 5.16364 7.76325 5.29939 7.791 5.4338C7.80315 5.48967 7.81364 5.53992 7.82506 5.58234C7.83613 5.62511 7.84481 5.66159 7.85421 5.69165C7.85888 5.70733 7.86286 5.72104 7.86631 5.73286C7.86981 5.74483 7.8691 5.7576 7.8643 5.76912C7.8595 5.78064 7.85088 5.79023 7.83984 5.79635C7.83676 5.79811 7.8335 5.79957 7.83013 5.80072L7.82572 5.80217C7.81196 5.80677 7.79693 5.80597 7.78375 5.79996C7.77057 5.79395 7.76026 5.78318 7.75495 5.76989C7.75033 5.75858 7.74503 5.74528 7.73894 5.73012C7.72694 5.70157 7.7139 5.66406 7.69834 5.62038C7.6817 5.57661 7.66613 5.52607 7.64793 5.46946C7.60568 5.33254 7.57071 5.19355 7.54319 5.05305C7.50787 4.86959 7.48582 4.68391 7.4772 4.49739C7.46689 4.27518 7.47513 4.05251 7.50184 3.83162C7.50981 3.77268 7.51702 3.71282 7.52819 3.6527C7.53755 3.59229 7.5504 3.53164 7.56321 3.47029C7.59067 3.34809 7.62213 3.2234 7.66335 3.09896C7.66832 3.08341 7.67317 3.06774 7.67827 3.05207C7.68372 3.0365 7.68917 3.02093 7.69475 3.00549C7.70589 2.97434 7.71666 2.94286 7.72829 2.9117C7.75301 2.84981 7.77672 2.78677 7.80494 2.72511C7.8312 2.66256 7.86148 2.60142 7.89124 2.53935C7.90662 2.50865 7.92298 2.47838 7.93896 2.44755L7.9633 2.40175L7.98898 2.3565C8.05782 2.23417 8.13324 2.11554 8.21492 2.00109C8.23567 1.97234 8.25646 1.94362 8.27729 1.91493L8.34261 1.8308C8.36421 1.80236 8.38731 1.77529 8.41015 1.748L8.44454 1.70682L8.46161 1.68635L8.48175 1.66412L8.54886 1.58914C8.55925 1.57695 8.5726 1.56335 8.58537 1.55013L8.62389 1.51022L8.66253 1.47042C8.67541 1.45709 8.68835 1.44539 8.70125 1.43276C8.72708 1.40796 8.75289 1.38293 8.77872 1.35813C8.88453 1.26145 8.99398 1.16879 9.108 1.08282C9.33229 0.913963 9.57326 0.767618 9.82729 0.645984C9.88878 0.615197 9.95201 0.589207 10.0138 0.561487C10.0452 0.548796 10.0764 0.536187 10.1076 0.52366C10.1231 0.517552 10.1388 0.511325 10.1542 0.505107C10.1699 0.499352 10.1856 0.493834 10.2013 0.488081C10.3258 0.440894 10.4508 0.40386 10.5734 0.369278C10.8053 0.307642 11.042 0.264446 11.281 0.240107C11.6423 0.203944 12.0067 0.212395 12.3659 0.265263C12.4312 0.275149 12.4895 0.283979 12.5397 0.294272C12.5902 0.303859 12.6333 0.311802 12.6678 0.320049C12.737 0.3356 13.0202 0.412577 13.0202 0.412577Z" fill="url(#paint27_linear_1502_588)"/>
<path style="mix-blend-mode:multiply" opacity="0.3" d="M12.5541 1.08841C12.5634 1.09621 12.572 1.10477 12.5798 1.11399L12.5129 1.22042C12.5129 1.22042 12.4845 1.21113 12.4313 1.19396C12.4048 1.1846 12.3715 1.17537 12.3324 1.16408C12.2934 1.15196 12.248 1.14103 12.197 1.12815C11.9127 1.05868 11.6206 1.02456 11.3277 1.02659C11.13 1.02821 10.9328 1.04546 10.738 1.07818C10.6342 1.09744 10.5274 1.1181 10.4203 1.14777C10.4068 1.1512 10.3932 1.15475 10.3797 1.15818C10.3662 1.16208 10.3528 1.16622 10.3393 1.17012C10.3124 1.17817 10.2853 1.18618 10.258 1.19415C10.2043 1.21272 10.1491 1.22931 10.0952 1.25037C9.87018 1.33332 9.65421 1.43818 9.45048 1.56337C9.34602 1.62771 9.24433 1.6987 9.14472 1.77363L9.07147 1.83202C9.05942 1.84179 9.04654 1.85147 9.03508 1.8611L9.00063 1.89058L8.96606 1.91994C8.95463 1.9298 8.9434 1.93895 8.93072 1.9511L8.85676 2.01957L8.84744 2.02818L8.83623 2.02638L8.8284 2.02151L8.82735 2.02261L8.8182 2.04393L8.78789 2.08015C8.76558 2.10222 8.7444 2.12557 8.72334 2.14878L8.65946 2.21804C8.63878 2.24183 8.61849 2.26575 8.59779 2.2893C8.51583 2.38387 8.43903 2.48264 8.36772 2.5852L8.34092 2.6235L8.31553 2.6624C8.29865 2.68831 8.28144 2.71413 8.26505 2.74024C8.23326 2.79317 8.20062 2.8453 8.17177 2.8993C8.14118 2.95217 8.11452 3.00681 8.08674 3.06065C8.07352 3.08784 8.06104 3.11525 8.04831 3.14243C8.04193 3.15601 8.03556 3.1696 8.0292 3.18319C8.02332 3.197 8.01756 3.21069 8.0118 3.22437C7.96339 3.33357 7.92408 3.44424 7.88797 3.55372C7.87107 3.60883 7.85379 3.66314 7.83988 3.71779C7.8244 3.77214 7.81255 3.82661 7.7998 3.88028C7.75526 4.08334 7.72769 4.28963 7.71739 4.4971C7.70854 4.67383 7.71253 4.85095 7.72935 5.02712C7.74267 5.16364 7.76325 5.29939 7.791 5.4338C7.80315 5.48967 7.81364 5.53992 7.82506 5.58233C7.83613 5.6251 7.84481 5.66158 7.85421 5.69165C7.85888 5.70733 7.86286 5.72103 7.86631 5.73286C7.86981 5.74482 7.8691 5.7576 7.8643 5.76912C7.8595 5.78064 7.85088 5.79023 7.83984 5.79635C7.72872 5.40015 7.31723 3.63587 8.38656 2.33342C9.59793 0.858048 11.7556 0.410524 12.5541 1.08841Z" fill="url(#paint28_linear_1502_588)"/>
<path d="M13.2528 0.165466L14.127 1.79598L11.8179 1.45627L13.2528 0.165466Z" fill="url(#paint29_linear_1502_588)"/>
<path style="mix-blend-mode:multiply" opacity="0.3" d="M13.2528 0.165466L14.127 1.79598L11.8179 1.45627L13.2528 0.165466Z" fill="url(#paint30_linear_1502_588)"/>
<path d="M13.334 0.0798187L14.1357 1.7868L11.9061 1.37699L13.334 0.0798187Z" fill="url(#paint31_linear_1502_588)"/>
<path d="M15.0647 13.1601L15.349 12.5371L15.3922 12.4425C15.3922 12.4425 15.4166 12.4472 15.4622 12.4556C15.485 12.4605 15.5134 12.4645 15.5467 12.4696C15.58 12.4754 15.6186 12.4796 15.6619 12.4847C15.9031 12.5115 16.1467 12.5084 16.3871 12.4756C16.5493 12.4532 16.7094 12.418 16.8658 12.3704C16.9489 12.3435 17.0343 12.3152 17.1191 12.2794C17.1298 12.2752 17.1406 12.2708 17.1513 12.2665C17.1619 12.2619 17.1725 12.2571 17.1831 12.2524C17.2043 12.243 17.2257 12.2335 17.2473 12.224C17.2893 12.2031 17.3328 12.1836 17.3748 12.1605C17.5504 12.0684 17.7163 11.9593 17.8698 11.8348C17.9485 11.7708 18.0242 11.7017 18.0977 11.6295L18.1514 11.5738C18.1603 11.5645 18.1698 11.5551 18.1781 11.546L18.2032 11.5181L18.2283 11.4903C18.2366 11.481 18.2448 11.4723 18.2539 11.461L18.3071 11.3969L18.3138 11.3888L18.3253 11.3906L18.3344 11.3952L18.3352 11.3942L18.3382 11.3742L18.358 11.3405C18.3739 11.32 18.3882 11.2982 18.403 11.2769L18.4475 11.213C18.4619 11.1913 18.4758 11.1694 18.4902 11.1478C18.547 11.0614 18.5992 10.9721 18.6464 10.8802L18.6642 10.8459L18.6807 10.8112C18.6917 10.7882 18.703 10.7651 18.7136 10.7419C18.7339 10.6951 18.7549 10.6488 18.7726 10.6013C18.7919 10.5547 18.8078 10.5069 18.8247 10.4598C18.8325 10.436 18.8398 10.4122 18.8472 10.3885C18.851 10.3767 18.8547 10.3648 18.8584 10.353C18.8617 10.341 18.8649 10.3292 18.8682 10.3173C18.8959 10.2225 18.9159 10.1274 18.9335 10.0336C18.9413 9.98653 18.9495 9.94009 18.9549 9.89372C18.9616 9.84743 18.9654 9.80142 18.9699 9.75599C18.9841 9.58446 18.984 9.41207 18.9695 9.24056C18.9573 9.09446 18.9345 8.94941 18.9012 8.8065C18.8752 8.69578 18.8433 8.58647 18.8057 8.47902C18.7895 8.43443 18.7754 8.39427 18.7613 8.36065C18.7475 8.3267 18.7364 8.29766 18.7253 8.27397C18.7198 8.26158 18.715 8.25075 18.7108 8.2414C18.7066 8.23195 18.7058 8.22138 18.7085 8.21141C18.7112 8.20144 18.7172 8.19264 18.7256 8.18644C18.7279 8.18466 18.7304 8.18312 18.7331 8.18182L18.7365 8.18015C18.7473 8.17492 18.7597 8.17397 18.7712 8.1775C18.7827 8.18104 18.7924 8.18879 18.7982 8.19914C18.8033 8.20794 18.8091 8.21829 18.8158 8.2301C18.8288 8.25227 18.8436 8.28169 18.8612 8.31591C18.8797 8.35009 18.8981 8.38995 18.9193 8.4345C18.9691 8.54247 19.0131 8.65291 19.0513 8.76538C19.1005 8.91231 19.1391 9.06248 19.1668 9.21476C19.1998 9.39618 19.2176 9.57995 19.22 9.76423C19.22 9.81349 19.2207 9.86343 19.2181 9.91399C19.2171 9.96461 19.2132 10.0158 19.2095 10.0676C19.2004 10.1708 19.1883 10.2766 19.1682 10.3832C19.1658 10.3965 19.1636 10.4099 19.1611 10.4233C19.1584 10.4367 19.1556 10.4501 19.1527 10.4633C19.147 10.4901 19.1416 10.5171 19.1355 10.5439C19.1221 10.5974 19.1095 10.6517 19.0932 10.7054C19.0785 10.7595 19.0604 10.813 19.0428 10.8671C19.0335 10.894 19.0234 10.9206 19.0137 10.9476L18.9988 10.9878L18.9827 11.0277C18.9396 11.1355 18.8908 11.241 18.8363 11.3437C18.8225 11.3695 18.8085 11.3953 18.7946 11.4211L18.7502 11.4972C18.7356 11.5228 18.7196 11.5475 18.7039 11.5724L18.6802 11.6099L18.6684 11.6285L18.6543 11.6489L18.6075 11.7176C18.6003 11.7287 18.5908 11.7413 18.5818 11.7536L18.5546 11.7904L18.5272 11.8272C18.5181 11.8396 18.5088 11.8506 18.4996 11.8623C18.4811 11.8854 18.4627 11.9087 18.4442 11.9319C18.3679 12.0225 18.2883 12.1103 18.2041 12.193C18.0385 12.3556 17.8567 12.5015 17.6615 12.6284C17.6144 12.6603 17.5653 12.6883 17.5176 12.7177C17.4933 12.7315 17.469 12.7451 17.4448 12.7588C17.4327 12.7654 17.4205 12.7722 17.4085 12.779C17.3963 12.7854 17.384 12.7916 17.3717 12.798C17.2747 12.85 17.1761 12.8937 17.0792 12.9352C16.8955 13.0105 16.7059 13.0712 16.5123 13.1166C16.2195 13.1848 15.9192 13.2166 15.6184 13.2114C15.5637 13.2103 15.5148 13.2092 15.4724 13.2061C15.4299 13.2036 15.3936 13.2017 15.3643 13.1986C15.3058 13.1932 15.0647 13.1601 15.0647 13.1601Z" fill="url(#paint32_linear_1502_588)"/>
<path style="mix-blend-mode:multiply" opacity="0.3" d="M15.373 12.5554C15.3645 12.55 15.3564 12.5438 15.349 12.5371L15.3922 12.4426C15.3922 12.4426 15.4166 12.4472 15.4622 12.4556C15.485 12.4605 15.5134 12.4645 15.5467 12.4696C15.58 12.4754 15.6186 12.4796 15.6619 12.4847C15.9031 12.5115 16.1467 12.5084 16.3871 12.4756C16.5493 12.4532 16.7094 12.418 16.8658 12.3704C16.9489 12.3435 17.0343 12.3152 17.1191 12.2794C17.1298 12.2752 17.1406 12.2708 17.1512 12.2665C17.1619 12.2619 17.1725 12.2571 17.1831 12.2524C17.2043 12.243 17.2257 12.2335 17.2473 12.224C17.2893 12.2031 17.3328 12.1836 17.3748 12.1605C17.5504 12.0684 17.7162 11.9593 17.8698 11.8348C17.9485 11.7708 18.0242 11.7017 18.0977 11.6295L18.1514 11.5738C18.1602 11.5645 18.1698 11.5551 18.1781 11.546L18.2031 11.5181L18.2283 11.4903C18.2366 11.481 18.2448 11.4723 18.2539 11.461L18.3071 11.3969L18.3138 11.3888L18.3253 11.3906L18.3344 11.3952L18.3352 11.3942L18.3382 11.3742L18.358 11.3405C18.3739 11.32 18.3882 11.2982 18.4029 11.2769L18.4475 11.213C18.4619 11.1913 18.4758 11.1694 18.4902 11.1478C18.547 11.0614 18.5992 10.9721 18.6464 10.8803L18.6642 10.8459L18.6807 10.8112C18.6917 10.7882 18.703 10.7651 18.7136 10.7419C18.7338 10.6951 18.7549 10.6488 18.7726 10.6014C18.7919 10.5547 18.8078 10.507 18.8247 10.4598C18.8325 10.436 18.8398 10.4122 18.8472 10.3885C18.8509 10.3767 18.8547 10.3648 18.8584 10.353C18.8617 10.341 18.8649 10.3292 18.8682 10.3173C18.8959 10.2225 18.9159 10.1274 18.9335 10.0336C18.9413 9.98654 18.9495 9.94009 18.9549 9.89373C18.9616 9.84743 18.9654 9.80143 18.9699 9.75599C18.9841 9.58446 18.9839 9.41208 18.9695 9.24057C18.9573 9.09447 18.9345 8.94942 18.9012 8.80651C18.8752 8.69579 18.8433 8.58648 18.8057 8.47903C18.7895 8.43444 18.7754 8.39428 18.7613 8.36066C18.7475 8.32671 18.7363 8.29767 18.7253 8.27398C18.7197 8.26159 18.715 8.25076 18.7108 8.24141C18.7066 8.23196 18.7058 8.22139 18.7085 8.21142C18.7111 8.20144 18.7172 8.19265 18.7256 8.18645C18.8605 8.50004 19.3932 9.90536 18.6587 11.089C17.8265 12.4298 16.1037 13.0271 15.373 12.5554Z" fill="url(#paint33_linear_1502_588)"/>
<path d="M14.9009 13.3879L14.0029 12.1417L15.937 12.1748L14.9009 13.3879Z" fill="url(#paint34_linear_1502_588)"/>
<path style="mix-blend-mode:multiply" opacity="0.3" d="M14.9009 13.3879L14.0029 12.1417L15.937 12.1748L14.9009 13.3879Z" fill="url(#paint35_linear_1502_588)"/>
<path d="M14.8437 13.4669L13.9967 12.1501L15.8734 12.2493L14.8437 13.4669Z" fill="url(#paint36_linear_1502_588)"/>
<defs>
<linearGradient id="paint0_linear_1502_588" x1="4.64418" y1="10.735" x2="15.5516" y2="10.735" gradientUnits="userSpaceOnUse">
<stop stop-color="#AA80F9"/>
<stop offset="0.9964" stop-color="#6165D7"/>
</linearGradient>
<linearGradient id="paint1_linear_1502_588" x1="0.59462" y1="10.735" x2="9.85228" y2="10.735" gradientUnits="userSpaceOnUse">
<stop stop-color="#AA80F9"/>
<stop offset="0.9964" stop-color="#6165D7"/>
</linearGradient>
<linearGradient id="paint2_linear_1502_588" x1="5.57919" y1="10.7249" x2="15.3518" y2="10.7249" gradientUnits="userSpaceOnUse">
<stop stop-color="#AA80F9"/>
<stop offset="0.9964" stop-color="#6165D7"/>
</linearGradient>
<linearGradient id="paint3_linear_1502_588" x1="8.37546" y1="6.83133" x2="-0.604079" y2="21.1381" gradientUnits="userSpaceOnUse">
<stop stop-color="#FF9085"/>
<stop offset="1" stop-color="#FB6FBB"/>
</linearGradient>
<linearGradient id="paint4_linear_1502_588" x1="19.7991" y1="8.51391" x2="12.2573" y2="10.0756" gradientUnits="userSpaceOnUse">
<stop stop-color="#FF9085"/>
<stop offset="1" stop-color="#FB6FBB"/>
</linearGradient>
<linearGradient id="paint5_linear_1502_588" x1="6.95195" y1="15.5765" x2="15.9184" y2="7.24468" gradientUnits="userSpaceOnUse">
<stop stop-color="#AA80F9"/>
<stop offset="0.9964" stop-color="#6165D7"/>
</linearGradient>
<linearGradient id="paint6_linear_1502_588" x1="16.1078" y1="-4.53744" x2="16.5007" y2="11.1618" gradientUnits="userSpaceOnUse">
<stop stop-color="#FFC444"/>
<stop offset="0.9964" stop-color="#F36F56"/>
</linearGradient>
<linearGradient id="paint7_linear_1502_588" x1="15.3126" y1="-4.51106" x2="15.7055" y2="11.1871" gradientUnits="userSpaceOnUse">
<stop stop-color="#FFC444"/>
<stop offset="0.9964" stop-color="#F36F56"/>
</linearGradient>
<linearGradient id="paint8_linear_1502_588" x1="13.1629" y1="5.58984" x2="19.1825" y2="5.58984" gradientUnits="userSpaceOnUse">
<stop stop-color="#FFC444"/>
<stop offset="0.9964" stop-color="#F36F56"/>
</linearGradient>
<linearGradient id="paint9_linear_1502_588" x1="11.1176" y1="7.81513" x2="10.0123" y2="19.3676" gradientUnits="userSpaceOnUse">
<stop offset="0.0036" stop-color="#E38DDD"/>
<stop offset="1" stop-color="#9571F6"/>
</linearGradient>
<linearGradient id="paint10_linear_1502_588" x1="12.1458" y1="7.5997" x2="11.0448" y2="19.108" gradientUnits="userSpaceOnUse">
<stop offset="0.0036" stop-color="#E38DDD"/>
<stop offset="1" stop-color="#9571F6"/>
</linearGradient>
<linearGradient id="paint11_linear_1502_588" x1="7.76257" y1="10.1184" x2="13.8625" y2="10.1184" gradientUnits="userSpaceOnUse">
<stop offset="0.0036" stop-color="#E38DDD"/>
<stop offset="1" stop-color="#9571F6"/>
</linearGradient>
<linearGradient id="paint12_linear_1502_588" x1="11.2284" y1="7.7221" x2="8.26004" y2="11.3486" gradientUnits="userSpaceOnUse">
<stop stop-color="#311944"/>
<stop offset="1" stop-color="#A03976"/>
</linearGradient>
<linearGradient id="paint13_linear_1502_588" x1="8.70953" y1="10.2921" x2="7.21008" y2="11.6873" gradientUnits="userSpaceOnUse">
<stop stop-color="#FFC444"/>
<stop offset="0.9964" stop-color="#F36F56"/>
</linearGradient>
<linearGradient id="paint14_linear_1502_588" x1="1.2917" y1="16.177" x2="1.63988" y2="13.8085" gradientUnits="userSpaceOnUse">
<stop stop-color="#FFC444"/>
<stop offset="0.9964" stop-color="#F36F56"/>
</linearGradient>
<linearGradient id="paint15_linear_1502_588" x1="3.25635" y1="20.3136" x2="2.97142" y2="18.6053" gradientUnits="userSpaceOnUse">
<stop stop-color="#AA80F9"/>
<stop offset="0.9964" stop-color="#6165D7"/>
</linearGradient>
<linearGradient id="paint16_linear_1502_588" x1="3.08204" y1="19.6511" x2="3.17696" y2="18.6418" gradientUnits="userSpaceOnUse">
<stop stop-color="#FFC444"/>
<stop offset="0.9964" stop-color="#F36F56"/>
</linearGradient>
<linearGradient id="paint17_linear_1502_588" x1="4.86655" y1="20.045" x2="4.58162" y2="18.3367" gradientUnits="userSpaceOnUse">
<stop stop-color="#AA80F9"/>
<stop offset="0.9964" stop-color="#6165D7"/>
</linearGradient>
<linearGradient id="paint18_linear_1502_588" x1="4.64731" y1="19.7983" x2="4.74222" y2="18.7891" gradientUnits="userSpaceOnUse">
<stop stop-color="#FFC444"/>
<stop offset="0.9964" stop-color="#F36F56"/>
</linearGradient>
<linearGradient id="paint19_linear_1502_588" x1="3.37689" y1="19.5194" x2="4.85631" y2="13.8606" gradientUnits="userSpaceOnUse">
<stop stop-color="#444B8C"/>
<stop offset="0.9964" stop-color="#26264F"/>
</linearGradient>
<linearGradient id="paint20_linear_1502_588" x1="2.87318" y1="19.3877" x2="4.3526" y2="13.7289" gradientUnits="userSpaceOnUse">
<stop stop-color="#444B8C"/>
<stop offset="0.9964" stop-color="#26264F"/>
</linearGradient>
<linearGradient id="paint21_linear_1502_588" x1="1.32527" y1="13.0367" x2="8.22331" y2="13.0367" gradientUnits="userSpaceOnUse">
<stop stop-color="#FFC444"/>
<stop offset="0.9964" stop-color="#F36F56"/>
</linearGradient>
<linearGradient id="paint22_linear_1502_588" x1="2.4023" y1="13.7212" x2="4.08775" y2="13.7212" gradientUnits="userSpaceOnUse">
<stop stop-color="#FFC444"/>
<stop offset="0.9964" stop-color="#F36F56"/>
</linearGradient>
<linearGradient id="paint23_linear_1502_588" x1="4.30492" y1="11.5444" x2="3.78571" y2="10.7668" gradientUnits="userSpaceOnUse">
<stop stop-color="#FFC444"/>
<stop offset="0.9964" stop-color="#F36F56"/>
</linearGradient>
<linearGradient id="paint24_linear_1502_588" x1="3.96841" y1="11.1943" x2="4.19288" y2="10.3853" gradientUnits="userSpaceOnUse">
<stop stop-color="#444B8C"/>
<stop offset="0.9964" stop-color="#3E4177"/>
</linearGradient>
<linearGradient id="paint25_linear_1502_588" x1="4.70489" y1="10.9533" x2="3.86214" y2="10.486" gradientUnits="userSpaceOnUse">
<stop stop-color="#FFC444"/>
<stop offset="0.9964" stop-color="#F36F56"/>
</linearGradient>
<linearGradient id="paint26_linear_1502_588" x1="4.63978" y1="11.0409" x2="4.10197" y2="10.6674" gradientUnits="userSpaceOnUse">
<stop stop-color="#444B8C"/>
<stop offset="0.9964" stop-color="#3E4177"/>
</linearGradient>
<linearGradient id="paint27_linear_1502_588" x1="8.39227" y1="0.996795" x2="13.279" y2="6.32061" gradientUnits="userSpaceOnUse">
<stop stop-color="#FFC444"/>
<stop offset="0.9964" stop-color="#F36F56"/>
</linearGradient>
<linearGradient id="paint28_linear_1502_588" x1="8.45615" y1="1.6116" x2="12.5765" y2="6.10058" gradientUnits="userSpaceOnUse">
<stop stop-color="#FFC444"/>
<stop offset="0.9964" stop-color="#F36F56"/>
</linearGradient>
<linearGradient id="paint29_linear_1502_588" x1="10.6952" y1="-1.12344" x2="15.6145" y2="4.23598" gradientUnits="userSpaceOnUse">
<stop stop-color="#FFC444"/>
<stop offset="0.9964" stop-color="#F36F56"/>
</linearGradient>
<linearGradient id="paint30_linear_1502_588" x1="10.6952" y1="-1.12344" x2="15.6145" y2="4.23598" gradientUnits="userSpaceOnUse">
<stop stop-color="#FFC444"/>
<stop offset="0.9964" stop-color="#F36F56"/>
</linearGradient>
<linearGradient id="paint31_linear_1502_588" x1="10.7851" y1="-1.2003" x2="15.6989" y2="4.15301" gradientUnits="userSpaceOnUse">
<stop stop-color="#FFC444"/>
<stop offset="0.9964" stop-color="#F36F56"/>
</linearGradient>
<linearGradient id="paint32_linear_1502_588" x1="18.8015" y1="12.1875" x2="14.1994" y2="8.336" gradientUnits="userSpaceOnUse">
<stop offset="0.0036" stop-color="#E38DDD"/>
<stop offset="1" stop-color="#9571F6"/>
</linearGradient>
<linearGradient id="paint33_linear_1502_588" x1="18.6812" y1="11.6893" x2="14.8007" y2="8.44178" gradientUnits="userSpaceOnUse">
<stop offset="0.0036" stop-color="#E38DDD"/>
<stop offset="1" stop-color="#9571F6"/>
</linearGradient>
<linearGradient id="paint34_linear_1502_588" x1="17.144" y1="14.1742" x2="12.511" y2="10.2969" gradientUnits="userSpaceOnUse">
<stop offset="0.0036" stop-color="#E38DDD"/>
<stop offset="1" stop-color="#9571F6"/>
</linearGradient>
<linearGradient id="paint35_linear_1502_588" x1="17.144" y1="14.1742" x2="12.511" y2="10.2969" gradientUnits="userSpaceOnUse">
<stop offset="0.0036" stop-color="#E38DDD"/>
<stop offset="1" stop-color="#9571F6"/>
</linearGradient>
<linearGradient id="paint36_linear_1502_588" x1="17.0785" y1="14.2469" x2="12.4509" y2="10.374" gradientUnits="userSpaceOnUse">
<stop offset="0.0036" stop-color="#E38DDD"/>
<stop offset="1" stop-color="#9571F6"/>
</linearGradient>
</defs>
</svg>
