<svg width="16" height="14" viewBox="0 0 16 14" fill="none" xmlns="http://www.w3.org/2000/svg">
<path d="M7 13.75C7.41421 13.75 7.75 13.4142 7.75 13C7.75 12.5858 7.41421 12.25 7 12.25L1 12.25C0.585787 12.25 0.25 12.5858 0.25 13C0.25 13.4142 0.585787 13.75 1 13.75H7Z" fill="white"/>
<path d="M15 7.75C15.4142 7.75 15.75 7.41421 15.75 7C15.75 6.58579 15.4142 6.25 15 6.25H1C0.585787 6.25 0.25 6.58579 0.25 7C0.25 7.41421 0.585787 7.75 1 7.75H15Z" fill="white"/>
<path d="M11 1.75C11.4142 1.75 11.75 1.41421 11.75 1C11.75 0.585787 11.4142 0.25 11 0.25L1 0.249999C0.585787 0.249999 0.25 0.585786 0.25 0.999999C0.25 1.41421 0.585787 1.75 1 1.75L11 1.75Z" fill="white"/>
</svg>
