<svg width="24" height="24" viewBox="0 0 24 24" fill="none" xmlns="http://www.w3.org/2000/svg">
<path d="M11.0999 1.25C7.70433 1.25 5.07715 4.22603 5.49831 7.59536L5.57767 8.23021C5.69379 9.15916 5.35446 10.0871 4.66645 10.7219C3.24077 12.0375 2.84468 14.1315 3.69133 15.8769L3.79468 16.09C4.58385 17.7169 6.23315 18.75 8.04138 18.75H16.2622C17.8219 18.75 19.2735 17.9532 20.111 16.6373C21.2931 14.7799 20.98 12.3432 19.3667 10.845L19.3228 10.8042C18.5843 10.1183 18.2207 9.11912 18.3457 8.11901L18.4103 7.60208C18.8319 4.22918 16.202 1.25 12.8028 1.25H11.0999Z" fill="#7D8BB7"/>
<path d="M9.7833 20.55C9.53477 20.2186 9.06467 20.1515 8.7333 20.4C8.40193 20.6485 8.33477 21.1186 8.5833 21.45L8.8833 21.85C10.5333 24.05 13.8333 24.05 15.4833 21.85L15.7833 21.45C16.0318 21.1186 15.9647 20.6485 15.6333 20.4C15.3019 20.1515 14.8318 20.2186 14.5833 20.55L14.2833 20.95C13.2333 22.35 11.1333 22.35 10.0833 20.95L9.7833 20.55Z" fill="#7D8BB7"/>
</svg>
