<svg width="22" height="22" viewBox="0 0 22 22" fill="none" xmlns="http://www.w3.org/2000/svg">
<path fill-rule="evenodd" clip-rule="evenodd" d="M9 0C4.02944 0 0 4.02944 0 9C0 13.9706 4.02944 18 9 18C13.9706 18 18 13.9706 18 9C18 4.02944 13.9706 0 9 0ZM7.33512 3.80232C7.74423 3.73752 8.02336 3.35334 7.95856 2.94423C7.89376 2.53511 7.50958 2.25599 7.10047 2.32079C4.64008 2.71047 2.71044 4.64012 2.32076 7.1005C2.25596 7.50961 2.53508 7.89379 2.9442 7.95859C3.35331 8.02339 3.73749 7.74426 3.80229 7.33515C4.09032 5.51661 5.51658 4.09035 7.33512 3.80232Z" fill="#7D8BB7"/>
<path fill-rule="evenodd" clip-rule="evenodd" d="M17.5303 16.4698C17.2374 16.1769 16.7626 16.1769 16.4697 16.4698C16.1768 16.7626 16.1768 17.2375 16.4697 17.5304L20.4696 21.5304C20.7625 21.8233 21.2373 21.8233 21.5302 21.5304C21.8231 21.2375 21.8231 20.7626 21.5302 20.4697L17.5303 16.4698Z" fill="#7D8BB7"/>
</svg>
