<svg width="17" height="17" viewBox="0 0 17 17" fill="none" xmlns="http://www.w3.org/2000/svg">
<mask id="path-2-inside-1_1503_674" fill="white">
<path d="M7.4879 1.28797C7.8746 0.63094 8.82482 0.630939 9.21152 1.28797L11.0162 4.35427C11.1582 4.5955 11.3948 4.76619 11.6685 4.82484L15.1567 5.57234C15.9093 5.73362 16.2052 6.64903 15.6894 7.2203L13.3225 9.84166C13.1329 10.0517 13.0411 10.3321 13.0699 10.6136L13.4288 14.1212C13.5067 14.8824 12.7357 15.4455 12.0343 15.1396L8.74944 13.7071C8.49454 13.596 8.20487 13.596 7.94998 13.7071L4.66515 15.1396C3.96376 15.4455 3.19273 14.8824 3.27061 14.1212L3.62948 10.6136C3.65827 10.3321 3.5665 10.0517 3.37689 9.84166L1.01006 7.2203C0.494264 6.64903 0.790159 5.73362 1.54275 5.57234L5.03092 4.82484C5.30462 4.76619 5.54121 4.5955 5.68319 4.35427L7.4879 1.28797Z"/>
</mask>
<path d="M5.03092 4.82484L4.92615 4.33594L5.03092 4.82484ZM5.68319 4.35427L5.25228 4.10065L5.68319 4.35427ZM1.01006 7.2203L0.638952 7.55538L1.01006 7.2203ZM3.37689 9.84166L3.748 9.50658L3.37689 9.84166ZM4.66515 15.1396L4.46528 14.6813L4.66515 15.1396ZM3.27061 14.1212L2.7732 14.0703L3.27061 14.1212ZM8.74944 13.7071L8.54957 14.1654L8.74944 13.7071ZM7.94998 13.7071L8.14984 14.1654L7.94998 13.7071ZM13.4288 14.1212L13.9262 14.0703L13.4288 14.1212ZM13.3225 9.84166L12.9514 9.50658L13.3225 9.84166ZM13.0699 10.6136L12.5725 10.6645L13.0699 10.6136ZM15.6894 7.2203L16.0605 7.55537L15.6894 7.2203ZM7.4879 1.28797L7.05699 1.03435L7.4879 1.28797ZM8.78061 1.54158L10.5853 4.60788L11.4471 4.10065L9.64242 1.03435L8.78061 1.54158ZM11.5637 5.31374L15.0519 6.06124L15.2614 5.08344L11.7733 4.33594L11.5637 5.31374ZM15.3182 6.88522L12.9514 9.50658L13.6936 10.1767L16.0605 7.55537L15.3182 6.88522ZM12.5725 10.6645L12.9314 14.1721L13.9262 14.0703L13.5673 10.5627L12.5725 10.6645ZM12.2341 14.6813L8.94931 13.2488L8.54957 14.1654L11.8344 15.5979L12.2341 14.6813ZM7.75011 13.2488L4.46528 14.6813L4.86501 15.5979L8.14984 14.1654L7.75011 13.2488ZM3.76801 14.1721L4.12688 10.6645L3.13207 10.5627L2.7732 14.0703L3.76801 14.1721ZM3.748 9.50658L1.38117 6.88522L0.638952 7.55538L3.00578 10.1767L3.748 9.50658ZM1.64751 6.06124L5.13569 5.31374L4.92615 4.33594L1.43798 5.08344L1.64751 6.06124ZM6.1141 4.60788L7.9188 1.54158L7.05699 1.03435L5.25228 4.10065L6.1141 4.60788ZM5.13569 5.31374C5.54624 5.22576 5.90112 4.96973 6.1141 4.60788L5.25228 4.10065C5.18129 4.22127 5.063 4.30661 4.92615 4.33594L5.13569 5.31374ZM1.38117 6.88522C1.12327 6.59959 1.27122 6.14188 1.64751 6.06124L1.43798 5.08344C0.309094 5.32536 -0.134745 6.69847 0.638952 7.55538L1.38117 6.88522ZM4.12688 10.6645C4.17007 10.2423 4.03241 9.82157 3.748 9.50658L3.00578 10.1767C3.10058 10.2817 3.14647 10.422 3.13207 10.5627L4.12688 10.6645ZM4.46528 14.6813C4.11459 14.8342 3.72907 14.5527 3.76801 14.1721L2.7732 14.0703C2.65638 15.2121 3.81293 16.0567 4.86501 15.5979L4.46528 14.6813ZM8.94931 13.2488C8.56696 13.0821 8.13245 13.0821 7.75011 13.2488L8.14984 14.1654C8.27729 14.1099 8.42213 14.1099 8.54957 14.1654L8.94931 13.2488ZM12.9314 14.1721C12.9703 14.5527 12.5848 14.8342 12.2341 14.6813L11.8344 15.5979C12.8865 16.0567 14.043 15.2121 13.9262 14.0703L12.9314 14.1721ZM12.9514 9.50658C12.667 9.82157 12.5293 10.2423 12.5725 10.6645L13.5673 10.5627C13.5529 10.422 13.5988 10.2817 13.6936 10.1767L12.9514 9.50658ZM15.0519 6.06124C15.4282 6.14188 15.5761 6.59959 15.3182 6.88522L16.0605 7.55537C16.8342 6.69847 16.3903 5.32536 15.2614 5.08344L15.0519 6.06124ZM10.5853 4.60788C10.7983 4.96973 11.1532 5.22576 11.5637 5.31374L11.7733 4.33594C11.6364 4.30661 11.5181 4.22127 11.4471 4.10065L10.5853 4.60788ZM9.64242 1.03435C9.06237 0.0488101 7.63704 0.048812 7.05699 1.03435L7.9188 1.54158C8.11215 1.21307 8.58726 1.21307 8.78061 1.54158L9.64242 1.03435Z" fill="#9DEAC0" mask="url(#path-2-inside-1_1503_674)"/>
<path d="M4.66419 15.1396L7.74849 13.7946C8.11306 13.6356 8.34875 13.2757 8.34875 12.8779V1.65898C8.34875 1.14964 7.6762 0.966408 7.41785 1.40536L5.68224 4.35427C5.54025 4.5955 5.30367 4.76618 5.02996 4.82484L1.54179 5.57234C0.789207 5.73362 0.493312 6.64903 1.00911 7.2203L3.37594 9.84166C3.56554 10.0517 3.65732 10.3321 3.62852 10.6136L3.26965 14.1212C3.19177 14.8824 3.96281 15.4455 4.66419 15.1396Z" fill="#9DEAC0"/>
</svg>
