<svg width="122" height="18" viewBox="0 0 122 18" fill="none" xmlns="http://www.w3.org/2000/svg">
<path fill-rule="evenodd" clip-rule="evenodd" d="M35 13.5L29.7099 16.2812L30.7202 10.3906L26.4405 6.21885L32.355 5.35942L35 0L37.645 5.35942L43.5595 6.21885L39.2798 10.3906L40.2901 16.2812L35 13.5Z" fill="#EEA427"/>
<path fill-rule="evenodd" clip-rule="evenodd" d="M9 13.5L3.70993 16.2812L4.72025 10.3906L0.440491 6.21885L6.35497 5.35942L9 0L11.645 5.35942L17.5595 6.21885L13.2798 10.3906L14.2901 16.2812L9 13.5Z" fill="#EEA427"/>
<path fill-rule="evenodd" clip-rule="evenodd" d="M61 13.5L55.7099 16.2812L56.7202 10.3906L52.4405 6.21885L58.355 5.35942L61 0L63.645 5.35942L69.5595 6.21885L65.2798 10.3906L66.2901 16.2812L61 13.5Z" fill="#EEA427"/>
<path fill-rule="evenodd" clip-rule="evenodd" d="M87 13.5L81.7099 16.2812L82.7202 10.3906L78.4405 6.21885L84.355 5.35942L87 0L89.645 5.35942L95.5595 6.21885L91.2798 10.3906L92.2901 16.2812L87 13.5Z" fill="#EEA427"/>
<path fill-rule="evenodd" clip-rule="evenodd" d="M113 13.5L107.71 16.2812L108.72 10.3906L104.44 6.21885L110.355 5.35942L113 0L115.645 5.35942L121.56 6.21885L117.28 10.3906L118.29 16.2812L113 13.5Z" fill="#DDDDDD"/>
</svg>
